<svg xmlns="http://www.w3.org/2000/svg" width="1500" height="950" viewBox="0 0 1500 950">
<rect width="1500" height="950" fill="#1b1b1f"/>
<defs><marker id="ah" markerWidth="11" markerHeight="8" refX="10" refY="4" orient="auto" markerUnits="userSpaceOnUse"><path d="M0,0 L11,4 L0,8 z" fill="#9a9aa4"/></marker></defs>
<circle cx="40" cy="40" r="1.4" fill="#2a2a31"/>
<circle cx="80" cy="40" r="1.4" fill="#2a2a31"/>
<circle cx="120" cy="40" r="1.4" fill="#2a2a31"/>
<circle cx="160" cy="40" r="1.4" fill="#2a2a31"/>
<circle cx="200" cy="40" r="1.4" fill="#2a2a31"/>
<circle cx="240" cy="40" r="1.4" fill="#2a2a31"/>
<circle cx="280" cy="40" r="1.4" fill="#2a2a31"/>
<circle cx="320" cy="40" r="1.4" fill="#2a2a31"/>
<circle cx="360" cy="40" r="1.4" fill="#2a2a31"/>
<circle cx="400" cy="40" r="1.4" fill="#2a2a31"/>
<circle cx="440" cy="40" r="1.4" fill="#2a2a31"/>
<circle cx="480" cy="40" r="1.4" fill="#2a2a31"/>
<circle cx="520" cy="40" r="1.4" fill="#2a2a31"/>
<circle cx="560" cy="40" r="1.4" fill="#2a2a31"/>
<circle cx="600" cy="40" r="1.4" fill="#2a2a31"/>
<circle cx="640" cy="40" r="1.4" fill="#2a2a31"/>
<circle cx="680" cy="40" r="1.4" fill="#2a2a31"/>
<circle cx="720" cy="40" r="1.4" fill="#2a2a31"/>
<circle cx="760" cy="40" r="1.4" fill="#2a2a31"/>
<circle cx="800" cy="40" r="1.4" fill="#2a2a31"/>
<circle cx="840" cy="40" r="1.4" fill="#2a2a31"/>
<circle cx="880" cy="40" r="1.4" fill="#2a2a31"/>
<circle cx="920" cy="40" r="1.4" fill="#2a2a31"/>
<circle cx="960" cy="40" r="1.4" fill="#2a2a31"/>
<circle cx="1000" cy="40" r="1.4" fill="#2a2a31"/>
<circle cx="1040" cy="40" r="1.4" fill="#2a2a31"/>
<circle cx="1080" cy="40" r="1.4" fill="#2a2a31"/>
<circle cx="1120" cy="40" r="1.4" fill="#2a2a31"/>
<circle cx="1160" cy="40" r="1.4" fill="#2a2a31"/>
<circle cx="1200" cy="40" r="1.4" fill="#2a2a31"/>
<circle cx="1240" cy="40" r="1.4" fill="#2a2a31"/>
<circle cx="1280" cy="40" r="1.4" fill="#2a2a31"/>
<circle cx="1320" cy="40" r="1.4" fill="#2a2a31"/>
<circle cx="1360" cy="40" r="1.4" fill="#2a2a31"/>
<circle cx="1400" cy="40" r="1.4" fill="#2a2a31"/>
<circle cx="1440" cy="40" r="1.4" fill="#2a2a31"/>
<circle cx="1480" cy="40" r="1.4" fill="#2a2a31"/>
<circle cx="40" cy="80" r="1.4" fill="#2a2a31"/>
<circle cx="80" cy="80" r="1.4" fill="#2a2a31"/>
<circle cx="120" cy="80" r="1.4" fill="#2a2a31"/>
<circle cx="160" cy="80" r="1.4" fill="#2a2a31"/>
<circle cx="200" cy="80" r="1.4" fill="#2a2a31"/>
<circle cx="240" cy="80" r="1.4" fill="#2a2a31"/>
<circle cx="280" cy="80" r="1.4" fill="#2a2a31"/>
<circle cx="320" cy="80" r="1.4" fill="#2a2a31"/>
<circle cx="360" cy="80" r="1.4" fill="#2a2a31"/>
<circle cx="400" cy="80" r="1.4" fill="#2a2a31"/>
<circle cx="440" cy="80" r="1.4" fill="#2a2a31"/>
<circle cx="480" cy="80" r="1.4" fill="#2a2a31"/>
<circle cx="520" cy="80" r="1.4" fill="#2a2a31"/>
<circle cx="560" cy="80" r="1.4" fill="#2a2a31"/>
<circle cx="600" cy="80" r="1.4" fill="#2a2a31"/>
<circle cx="640" cy="80" r="1.4" fill="#2a2a31"/>
<circle cx="680" cy="80" r="1.4" fill="#2a2a31"/>
<circle cx="720" cy="80" r="1.4" fill="#2a2a31"/>
<circle cx="760" cy="80" r="1.4" fill="#2a2a31"/>
<circle cx="800" cy="80" r="1.4" fill="#2a2a31"/>
<circle cx="840" cy="80" r="1.4" fill="#2a2a31"/>
<circle cx="880" cy="80" r="1.4" fill="#2a2a31"/>
<circle cx="920" cy="80" r="1.4" fill="#2a2a31"/>
<circle cx="960" cy="80" r="1.4" fill="#2a2a31"/>
<circle cx="1000" cy="80" r="1.4" fill="#2a2a31"/>
<circle cx="1040" cy="80" r="1.4" fill="#2a2a31"/>
<circle cx="1080" cy="80" r="1.4" fill="#2a2a31"/>
<circle cx="1120" cy="80" r="1.4" fill="#2a2a31"/>
<circle cx="1160" cy="80" r="1.4" fill="#2a2a31"/>
<circle cx="1200" cy="80" r="1.4" fill="#2a2a31"/>
<circle cx="1240" cy="80" r="1.4" fill="#2a2a31"/>
<circle cx="1280" cy="80" r="1.4" fill="#2a2a31"/>
<circle cx="1320" cy="80" r="1.4" fill="#2a2a31"/>
<circle cx="1360" cy="80" r="1.4" fill="#2a2a31"/>
<circle cx="1400" cy="80" r="1.4" fill="#2a2a31"/>
<circle cx="1440" cy="80" r="1.4" fill="#2a2a31"/>
<circle cx="1480" cy="80" r="1.4" fill="#2a2a31"/>
<circle cx="40" cy="120" r="1.4" fill="#2a2a31"/>
<circle cx="80" cy="120" r="1.4" fill="#2a2a31"/>
<circle cx="120" cy="120" r="1.4" fill="#2a2a31"/>
<circle cx="160" cy="120" r="1.4" fill="#2a2a31"/>
<circle cx="200" cy="120" r="1.4" fill="#2a2a31"/>
<circle cx="240" cy="120" r="1.4" fill="#2a2a31"/>
<circle cx="280" cy="120" r="1.4" fill="#2a2a31"/>
<circle cx="320" cy="120" r="1.4" fill="#2a2a31"/>
<circle cx="360" cy="120" r="1.4" fill="#2a2a31"/>
<circle cx="400" cy="120" r="1.4" fill="#2a2a31"/>
<circle cx="440" cy="120" r="1.4" fill="#2a2a31"/>
<circle cx="480" cy="120" r="1.4" fill="#2a2a31"/>
<circle cx="520" cy="120" r="1.4" fill="#2a2a31"/>
<circle cx="560" cy="120" r="1.4" fill="#2a2a31"/>
<circle cx="600" cy="120" r="1.4" fill="#2a2a31"/>
<circle cx="640" cy="120" r="1.4" fill="#2a2a31"/>
<circle cx="680" cy="120" r="1.4" fill="#2a2a31"/>
<circle cx="720" cy="120" r="1.4" fill="#2a2a31"/>
<circle cx="760" cy="120" r="1.4" fill="#2a2a31"/>
<circle cx="800" cy="120" r="1.4" fill="#2a2a31"/>
<circle cx="840" cy="120" r="1.4" fill="#2a2a31"/>
<circle cx="880" cy="120" r="1.4" fill="#2a2a31"/>
<circle cx="920" cy="120" r="1.4" fill="#2a2a31"/>
<circle cx="960" cy="120" r="1.4" fill="#2a2a31"/>
<circle cx="1000" cy="120" r="1.4" fill="#2a2a31"/>
<circle cx="1040" cy="120" r="1.4" fill="#2a2a31"/>
<circle cx="1080" cy="120" r="1.4" fill="#2a2a31"/>
<circle cx="1120" cy="120" r="1.4" fill="#2a2a31"/>
<circle cx="1160" cy="120" r="1.4" fill="#2a2a31"/>
<circle cx="1200" cy="120" r="1.4" fill="#2a2a31"/>
<circle cx="1240" cy="120" r="1.4" fill="#2a2a31"/>
<circle cx="1280" cy="120" r="1.4" fill="#2a2a31"/>
<circle cx="1320" cy="120" r="1.4" fill="#2a2a31"/>
<circle cx="1360" cy="120" r="1.4" fill="#2a2a31"/>
<circle cx="1400" cy="120" r="1.4" fill="#2a2a31"/>
<circle cx="1440" cy="120" r="1.4" fill="#2a2a31"/>
<circle cx="1480" cy="120" r="1.4" fill="#2a2a31"/>
<circle cx="40" cy="160" r="1.4" fill="#2a2a31"/>
<circle cx="80" cy="160" r="1.4" fill="#2a2a31"/>
<circle cx="120" cy="160" r="1.4" fill="#2a2a31"/>
<circle cx="160" cy="160" r="1.4" fill="#2a2a31"/>
<circle cx="200" cy="160" r="1.4" fill="#2a2a31"/>
<circle cx="240" cy="160" r="1.4" fill="#2a2a31"/>
<circle cx="280" cy="160" r="1.4" fill="#2a2a31"/>
<circle cx="320" cy="160" r="1.4" fill="#2a2a31"/>
<circle cx="360" cy="160" r="1.4" fill="#2a2a31"/>
<circle cx="400" cy="160" r="1.4" fill="#2a2a31"/>
<circle cx="440" cy="160" r="1.4" fill="#2a2a31"/>
<circle cx="480" cy="160" r="1.4" fill="#2a2a31"/>
<circle cx="520" cy="160" r="1.4" fill="#2a2a31"/>
<circle cx="560" cy="160" r="1.4" fill="#2a2a31"/>
<circle cx="600" cy="160" r="1.4" fill="#2a2a31"/>
<circle cx="640" cy="160" r="1.4" fill="#2a2a31"/>
<circle cx="680" cy="160" r="1.4" fill="#2a2a31"/>
<circle cx="720" cy="160" r="1.4" fill="#2a2a31"/>
<circle cx="760" cy="160" r="1.4" fill="#2a2a31"/>
<circle cx="800" cy="160" r="1.4" fill="#2a2a31"/>
<circle cx="840" cy="160" r="1.4" fill="#2a2a31"/>
<circle cx="880" cy="160" r="1.4" fill="#2a2a31"/>
<circle cx="920" cy="160" r="1.4" fill="#2a2a31"/>
<circle cx="960" cy="160" r="1.4" fill="#2a2a31"/>
<circle cx="1000" cy="160" r="1.4" fill="#2a2a31"/>
<circle cx="1040" cy="160" r="1.4" fill="#2a2a31"/>
<circle cx="1080" cy="160" r="1.4" fill="#2a2a31"/>
<circle cx="1120" cy="160" r="1.4" fill="#2a2a31"/>
<circle cx="1160" cy="160" r="1.4" fill="#2a2a31"/>
<circle cx="1200" cy="160" r="1.4" fill="#2a2a31"/>
<circle cx="1240" cy="160" r="1.4" fill="#2a2a31"/>
<circle cx="1280" cy="160" r="1.4" fill="#2a2a31"/>
<circle cx="1320" cy="160" r="1.4" fill="#2a2a31"/>
<circle cx="1360" cy="160" r="1.4" fill="#2a2a31"/>
<circle cx="1400" cy="160" r="1.4" fill="#2a2a31"/>
<circle cx="1440" cy="160" r="1.4" fill="#2a2a31"/>
<circle cx="1480" cy="160" r="1.4" fill="#2a2a31"/>
<circle cx="40" cy="200" r="1.4" fill="#2a2a31"/>
<circle cx="80" cy="200" r="1.4" fill="#2a2a31"/>
<circle cx="120" cy="200" r="1.4" fill="#2a2a31"/>
<circle cx="160" cy="200" r="1.4" fill="#2a2a31"/>
<circle cx="200" cy="200" r="1.4" fill="#2a2a31"/>
<circle cx="240" cy="200" r="1.4" fill="#2a2a31"/>
<circle cx="280" cy="200" r="1.4" fill="#2a2a31"/>
<circle cx="320" cy="200" r="1.4" fill="#2a2a31"/>
<circle cx="360" cy="200" r="1.4" fill="#2a2a31"/>
<circle cx="400" cy="200" r="1.4" fill="#2a2a31"/>
<circle cx="440" cy="200" r="1.4" fill="#2a2a31"/>
<circle cx="480" cy="200" r="1.4" fill="#2a2a31"/>
<circle cx="520" cy="200" r="1.4" fill="#2a2a31"/>
<circle cx="560" cy="200" r="1.4" fill="#2a2a31"/>
<circle cx="600" cy="200" r="1.4" fill="#2a2a31"/>
<circle cx="640" cy="200" r="1.4" fill="#2a2a31"/>
<circle cx="680" cy="200" r="1.4" fill="#2a2a31"/>
<circle cx="720" cy="200" r="1.4" fill="#2a2a31"/>
<circle cx="760" cy="200" r="1.4" fill="#2a2a31"/>
<circle cx="800" cy="200" r="1.4" fill="#2a2a31"/>
<circle cx="840" cy="200" r="1.4" fill="#2a2a31"/>
<circle cx="880" cy="200" r="1.4" fill="#2a2a31"/>
<circle cx="920" cy="200" r="1.4" fill="#2a2a31"/>
<circle cx="960" cy="200" r="1.4" fill="#2a2a31"/>
<circle cx="1000" cy="200" r="1.4" fill="#2a2a31"/>
<circle cx="1040" cy="200" r="1.4" fill="#2a2a31"/>
<circle cx="1080" cy="200" r="1.4" fill="#2a2a31"/>
<circle cx="1120" cy="200" r="1.4" fill="#2a2a31"/>
<circle cx="1160" cy="200" r="1.4" fill="#2a2a31"/>
<circle cx="1200" cy="200" r="1.4" fill="#2a2a31"/>
<circle cx="1240" cy="200" r="1.4" fill="#2a2a31"/>
<circle cx="1280" cy="200" r="1.4" fill="#2a2a31"/>
<circle cx="1320" cy="200" r="1.4" fill="#2a2a31"/>
<circle cx="1360" cy="200" r="1.4" fill="#2a2a31"/>
<circle cx="1400" cy="200" r="1.4" fill="#2a2a31"/>
<circle cx="1440" cy="200" r="1.4" fill="#2a2a31"/>
<circle cx="1480" cy="200" r="1.4" fill="#2a2a31"/>
<circle cx="40" cy="240" r="1.4" fill="#2a2a31"/>
<circle cx="80" cy="240" r="1.4" fill="#2a2a31"/>
<circle cx="120" cy="240" r="1.4" fill="#2a2a31"/>
<circle cx="160" cy="240" r="1.4" fill="#2a2a31"/>
<circle cx="200" cy="240" r="1.4" fill="#2a2a31"/>
<circle cx="240" cy="240" r="1.4" fill="#2a2a31"/>
<circle cx="280" cy="240" r="1.4" fill="#2a2a31"/>
<circle cx="320" cy="240" r="1.4" fill="#2a2a31"/>
<circle cx="360" cy="240" r="1.4" fill="#2a2a31"/>
<circle cx="400" cy="240" r="1.4" fill="#2a2a31"/>
<circle cx="440" cy="240" r="1.4" fill="#2a2a31"/>
<circle cx="480" cy="240" r="1.4" fill="#2a2a31"/>
<circle cx="520" cy="240" r="1.4" fill="#2a2a31"/>
<circle cx="560" cy="240" r="1.4" fill="#2a2a31"/>
<circle cx="600" cy="240" r="1.4" fill="#2a2a31"/>
<circle cx="640" cy="240" r="1.4" fill="#2a2a31"/>
<circle cx="680" cy="240" r="1.4" fill="#2a2a31"/>
<circle cx="720" cy="240" r="1.4" fill="#2a2a31"/>
<circle cx="760" cy="240" r="1.4" fill="#2a2a31"/>
<circle cx="800" cy="240" r="1.4" fill="#2a2a31"/>
<circle cx="840" cy="240" r="1.4" fill="#2a2a31"/>
<circle cx="880" cy="240" r="1.4" fill="#2a2a31"/>
<circle cx="920" cy="240" r="1.4" fill="#2a2a31"/>
<circle cx="960" cy="240" r="1.4" fill="#2a2a31"/>
<circle cx="1000" cy="240" r="1.4" fill="#2a2a31"/>
<circle cx="1040" cy="240" r="1.4" fill="#2a2a31"/>
<circle cx="1080" cy="240" r="1.4" fill="#2a2a31"/>
<circle cx="1120" cy="240" r="1.4" fill="#2a2a31"/>
<circle cx="1160" cy="240" r="1.4" fill="#2a2a31"/>
<circle cx="1200" cy="240" r="1.4" fill="#2a2a31"/>
<circle cx="1240" cy="240" r="1.4" fill="#2a2a31"/>
<circle cx="1280" cy="240" r="1.4" fill="#2a2a31"/>
<circle cx="1320" cy="240" r="1.4" fill="#2a2a31"/>
<circle cx="1360" cy="240" r="1.4" fill="#2a2a31"/>
<circle cx="1400" cy="240" r="1.4" fill="#2a2a31"/>
<circle cx="1440" cy="240" r="1.4" fill="#2a2a31"/>
<circle cx="1480" cy="240" r="1.4" fill="#2a2a31"/>
<circle cx="40" cy="280" r="1.4" fill="#2a2a31"/>
<circle cx="80" cy="280" r="1.4" fill="#2a2a31"/>
<circle cx="120" cy="280" r="1.4" fill="#2a2a31"/>
<circle cx="160" cy="280" r="1.4" fill="#2a2a31"/>
<circle cx="200" cy="280" r="1.4" fill="#2a2a31"/>
<circle cx="240" cy="280" r="1.4" fill="#2a2a31"/>
<circle cx="280" cy="280" r="1.4" fill="#2a2a31"/>
<circle cx="320" cy="280" r="1.4" fill="#2a2a31"/>
<circle cx="360" cy="280" r="1.4" fill="#2a2a31"/>
<circle cx="400" cy="280" r="1.4" fill="#2a2a31"/>
<circle cx="440" cy="280" r="1.4" fill="#2a2a31"/>
<circle cx="480" cy="280" r="1.4" fill="#2a2a31"/>
<circle cx="520" cy="280" r="1.4" fill="#2a2a31"/>
<circle cx="560" cy="280" r="1.4" fill="#2a2a31"/>
<circle cx="600" cy="280" r="1.4" fill="#2a2a31"/>
<circle cx="640" cy="280" r="1.4" fill="#2a2a31"/>
<circle cx="680" cy="280" r="1.4" fill="#2a2a31"/>
<circle cx="720" cy="280" r="1.4" fill="#2a2a31"/>
<circle cx="760" cy="280" r="1.4" fill="#2a2a31"/>
<circle cx="800" cy="280" r="1.4" fill="#2a2a31"/>
<circle cx="840" cy="280" r="1.4" fill="#2a2a31"/>
<circle cx="880" cy="280" r="1.4" fill="#2a2a31"/>
<circle cx="920" cy="280" r="1.4" fill="#2a2a31"/>
<circle cx="960" cy="280" r="1.4" fill="#2a2a31"/>
<circle cx="1000" cy="280" r="1.4" fill="#2a2a31"/>
<circle cx="1040" cy="280" r="1.4" fill="#2a2a31"/>
<circle cx="1080" cy="280" r="1.4" fill="#2a2a31"/>
<circle cx="1120" cy="280" r="1.4" fill="#2a2a31"/>
<circle cx="1160" cy="280" r="1.4" fill="#2a2a31"/>
<circle cx="1200" cy="280" r="1.4" fill="#2a2a31"/>
<circle cx="1240" cy="280" r="1.4" fill="#2a2a31"/>
<circle cx="1280" cy="280" r="1.4" fill="#2a2a31"/>
<circle cx="1320" cy="280" r="1.4" fill="#2a2a31"/>
<circle cx="1360" cy="280" r="1.4" fill="#2a2a31"/>
<circle cx="1400" cy="280" r="1.4" fill="#2a2a31"/>
<circle cx="1440" cy="280" r="1.4" fill="#2a2a31"/>
<circle cx="1480" cy="280" r="1.4" fill="#2a2a31"/>
<circle cx="40" cy="320" r="1.4" fill="#2a2a31"/>
<circle cx="80" cy="320" r="1.4" fill="#2a2a31"/>
<circle cx="120" cy="320" r="1.4" fill="#2a2a31"/>
<circle cx="160" cy="320" r="1.4" fill="#2a2a31"/>
<circle cx="200" cy="320" r="1.4" fill="#2a2a31"/>
<circle cx="240" cy="320" r="1.4" fill="#2a2a31"/>
<circle cx="280" cy="320" r="1.4" fill="#2a2a31"/>
<circle cx="320" cy="320" r="1.4" fill="#2a2a31"/>
<circle cx="360" cy="320" r="1.4" fill="#2a2a31"/>
<circle cx="400" cy="320" r="1.4" fill="#2a2a31"/>
<circle cx="440" cy="320" r="1.4" fill="#2a2a31"/>
<circle cx="480" cy="320" r="1.4" fill="#2a2a31"/>
<circle cx="520" cy="320" r="1.4" fill="#2a2a31"/>
<circle cx="560" cy="320" r="1.4" fill="#2a2a31"/>
<circle cx="600" cy="320" r="1.4" fill="#2a2a31"/>
<circle cx="640" cy="320" r="1.4" fill="#2a2a31"/>
<circle cx="680" cy="320" r="1.4" fill="#2a2a31"/>
<circle cx="720" cy="320" r="1.4" fill="#2a2a31"/>
<circle cx="760" cy="320" r="1.4" fill="#2a2a31"/>
<circle cx="800" cy="320" r="1.4" fill="#2a2a31"/>
<circle cx="840" cy="320" r="1.4" fill="#2a2a31"/>
<circle cx="880" cy="320" r="1.4" fill="#2a2a31"/>
<circle cx="920" cy="320" r="1.4" fill="#2a2a31"/>
<circle cx="960" cy="320" r="1.4" fill="#2a2a31"/>
<circle cx="1000" cy="320" r="1.4" fill="#2a2a31"/>
<circle cx="1040" cy="320" r="1.4" fill="#2a2a31"/>
<circle cx="1080" cy="320" r="1.4" fill="#2a2a31"/>
<circle cx="1120" cy="320" r="1.4" fill="#2a2a31"/>
<circle cx="1160" cy="320" r="1.4" fill="#2a2a31"/>
<circle cx="1200" cy="320" r="1.4" fill="#2a2a31"/>
<circle cx="1240" cy="320" r="1.4" fill="#2a2a31"/>
<circle cx="1280" cy="320" r="1.4" fill="#2a2a31"/>
<circle cx="1320" cy="320" r="1.4" fill="#2a2a31"/>
<circle cx="1360" cy="320" r="1.4" fill="#2a2a31"/>
<circle cx="1400" cy="320" r="1.4" fill="#2a2a31"/>
<circle cx="1440" cy="320" r="1.4" fill="#2a2a31"/>
<circle cx="1480" cy="320" r="1.4" fill="#2a2a31"/>
<circle cx="40" cy="360" r="1.4" fill="#2a2a31"/>
<circle cx="80" cy="360" r="1.4" fill="#2a2a31"/>
<circle cx="120" cy="360" r="1.4" fill="#2a2a31"/>
<circle cx="160" cy="360" r="1.4" fill="#2a2a31"/>
<circle cx="200" cy="360" r="1.4" fill="#2a2a31"/>
<circle cx="240" cy="360" r="1.4" fill="#2a2a31"/>
<circle cx="280" cy="360" r="1.4" fill="#2a2a31"/>
<circle cx="320" cy="360" r="1.4" fill="#2a2a31"/>
<circle cx="360" cy="360" r="1.4" fill="#2a2a31"/>
<circle cx="400" cy="360" r="1.4" fill="#2a2a31"/>
<circle cx="440" cy="360" r="1.4" fill="#2a2a31"/>
<circle cx="480" cy="360" r="1.4" fill="#2a2a31"/>
<circle cx="520" cy="360" r="1.4" fill="#2a2a31"/>
<circle cx="560" cy="360" r="1.4" fill="#2a2a31"/>
<circle cx="600" cy="360" r="1.4" fill="#2a2a31"/>
<circle cx="640" cy="360" r="1.4" fill="#2a2a31"/>
<circle cx="680" cy="360" r="1.4" fill="#2a2a31"/>
<circle cx="720" cy="360" r="1.4" fill="#2a2a31"/>
<circle cx="760" cy="360" r="1.4" fill="#2a2a31"/>
<circle cx="800" cy="360" r="1.4" fill="#2a2a31"/>
<circle cx="840" cy="360" r="1.4" fill="#2a2a31"/>
<circle cx="880" cy="360" r="1.4" fill="#2a2a31"/>
<circle cx="920" cy="360" r="1.4" fill="#2a2a31"/>
<circle cx="960" cy="360" r="1.4" fill="#2a2a31"/>
<circle cx="1000" cy="360" r="1.4" fill="#2a2a31"/>
<circle cx="1040" cy="360" r="1.4" fill="#2a2a31"/>
<circle cx="1080" cy="360" r="1.4" fill="#2a2a31"/>
<circle cx="1120" cy="360" r="1.4" fill="#2a2a31"/>
<circle cx="1160" cy="360" r="1.4" fill="#2a2a31"/>
<circle cx="1200" cy="360" r="1.4" fill="#2a2a31"/>
<circle cx="1240" cy="360" r="1.4" fill="#2a2a31"/>
<circle cx="1280" cy="360" r="1.4" fill="#2a2a31"/>
<circle cx="1320" cy="360" r="1.4" fill="#2a2a31"/>
<circle cx="1360" cy="360" r="1.4" fill="#2a2a31"/>
<circle cx="1400" cy="360" r="1.4" fill="#2a2a31"/>
<circle cx="1440" cy="360" r="1.4" fill="#2a2a31"/>
<circle cx="1480" cy="360" r="1.4" fill="#2a2a31"/>
<circle cx="40" cy="400" r="1.4" fill="#2a2a31"/>
<circle cx="80" cy="400" r="1.4" fill="#2a2a31"/>
<circle cx="120" cy="400" r="1.4" fill="#2a2a31"/>
<circle cx="160" cy="400" r="1.4" fill="#2a2a31"/>
<circle cx="200" cy="400" r="1.4" fill="#2a2a31"/>
<circle cx="240" cy="400" r="1.4" fill="#2a2a31"/>
<circle cx="280" cy="400" r="1.4" fill="#2a2a31"/>
<circle cx="320" cy="400" r="1.4" fill="#2a2a31"/>
<circle cx="360" cy="400" r="1.4" fill="#2a2a31"/>
<circle cx="400" cy="400" r="1.4" fill="#2a2a31"/>
<circle cx="440" cy="400" r="1.4" fill="#2a2a31"/>
<circle cx="480" cy="400" r="1.4" fill="#2a2a31"/>
<circle cx="520" cy="400" r="1.4" fill="#2a2a31"/>
<circle cx="560" cy="400" r="1.4" fill="#2a2a31"/>
<circle cx="600" cy="400" r="1.4" fill="#2a2a31"/>
<circle cx="640" cy="400" r="1.4" fill="#2a2a31"/>
<circle cx="680" cy="400" r="1.4" fill="#2a2a31"/>
<circle cx="720" cy="400" r="1.4" fill="#2a2a31"/>
<circle cx="760" cy="400" r="1.4" fill="#2a2a31"/>
<circle cx="800" cy="400" r="1.4" fill="#2a2a31"/>
<circle cx="840" cy="400" r="1.4" fill="#2a2a31"/>
<circle cx="880" cy="400" r="1.4" fill="#2a2a31"/>
<circle cx="920" cy="400" r="1.4" fill="#2a2a31"/>
<circle cx="960" cy="400" r="1.4" fill="#2a2a31"/>
<circle cx="1000" cy="400" r="1.4" fill="#2a2a31"/>
<circle cx="1040" cy="400" r="1.4" fill="#2a2a31"/>
<circle cx="1080" cy="400" r="1.4" fill="#2a2a31"/>
<circle cx="1120" cy="400" r="1.4" fill="#2a2a31"/>
<circle cx="1160" cy="400" r="1.4" fill="#2a2a31"/>
<circle cx="1200" cy="400" r="1.4" fill="#2a2a31"/>
<circle cx="1240" cy="400" r="1.4" fill="#2a2a31"/>
<circle cx="1280" cy="400" r="1.4" fill="#2a2a31"/>
<circle cx="1320" cy="400" r="1.4" fill="#2a2a31"/>
<circle cx="1360" cy="400" r="1.4" fill="#2a2a31"/>
<circle cx="1400" cy="400" r="1.4" fill="#2a2a31"/>
<circle cx="1440" cy="400" r="1.4" fill="#2a2a31"/>
<circle cx="1480" cy="400" r="1.4" fill="#2a2a31"/>
<circle cx="40" cy="440" r="1.4" fill="#2a2a31"/>
<circle cx="80" cy="440" r="1.4" fill="#2a2a31"/>
<circle cx="120" cy="440" r="1.4" fill="#2a2a31"/>
<circle cx="160" cy="440" r="1.4" fill="#2a2a31"/>
<circle cx="200" cy="440" r="1.4" fill="#2a2a31"/>
<circle cx="240" cy="440" r="1.4" fill="#2a2a31"/>
<circle cx="280" cy="440" r="1.4" fill="#2a2a31"/>
<circle cx="320" cy="440" r="1.4" fill="#2a2a31"/>
<circle cx="360" cy="440" r="1.4" fill="#2a2a31"/>
<circle cx="400" cy="440" r="1.4" fill="#2a2a31"/>
<circle cx="440" cy="440" r="1.4" fill="#2a2a31"/>
<circle cx="480" cy="440" r="1.4" fill="#2a2a31"/>
<circle cx="520" cy="440" r="1.4" fill="#2a2a31"/>
<circle cx="560" cy="440" r="1.4" fill="#2a2a31"/>
<circle cx="600" cy="440" r="1.4" fill="#2a2a31"/>
<circle cx="640" cy="440" r="1.4" fill="#2a2a31"/>
<circle cx="680" cy="440" r="1.4" fill="#2a2a31"/>
<circle cx="720" cy="440" r="1.4" fill="#2a2a31"/>
<circle cx="760" cy="440" r="1.4" fill="#2a2a31"/>
<circle cx="800" cy="440" r="1.4" fill="#2a2a31"/>
<circle cx="840" cy="440" r="1.4" fill="#2a2a31"/>
<circle cx="880" cy="440" r="1.4" fill="#2a2a31"/>
<circle cx="920" cy="440" r="1.4" fill="#2a2a31"/>
<circle cx="960" cy="440" r="1.4" fill="#2a2a31"/>
<circle cx="1000" cy="440" r="1.4" fill="#2a2a31"/>
<circle cx="1040" cy="440" r="1.4" fill="#2a2a31"/>
<circle cx="1080" cy="440" r="1.4" fill="#2a2a31"/>
<circle cx="1120" cy="440" r="1.4" fill="#2a2a31"/>
<circle cx="1160" cy="440" r="1.4" fill="#2a2a31"/>
<circle cx="1200" cy="440" r="1.4" fill="#2a2a31"/>
<circle cx="1240" cy="440" r="1.4" fill="#2a2a31"/>
<circle cx="1280" cy="440" r="1.4" fill="#2a2a31"/>
<circle cx="1320" cy="440" r="1.4" fill="#2a2a31"/>
<circle cx="1360" cy="440" r="1.4" fill="#2a2a31"/>
<circle cx="1400" cy="440" r="1.4" fill="#2a2a31"/>
<circle cx="1440" cy="440" r="1.4" fill="#2a2a31"/>
<circle cx="1480" cy="440" r="1.4" fill="#2a2a31"/>
<circle cx="40" cy="480" r="1.4" fill="#2a2a31"/>
<circle cx="80" cy="480" r="1.4" fill="#2a2a31"/>
<circle cx="120" cy="480" r="1.4" fill="#2a2a31"/>
<circle cx="160" cy="480" r="1.4" fill="#2a2a31"/>
<circle cx="200" cy="480" r="1.4" fill="#2a2a31"/>
<circle cx="240" cy="480" r="1.4" fill="#2a2a31"/>
<circle cx="280" cy="480" r="1.4" fill="#2a2a31"/>
<circle cx="320" cy="480" r="1.4" fill="#2a2a31"/>
<circle cx="360" cy="480" r="1.4" fill="#2a2a31"/>
<circle cx="400" cy="480" r="1.4" fill="#2a2a31"/>
<circle cx="440" cy="480" r="1.4" fill="#2a2a31"/>
<circle cx="480" cy="480" r="1.4" fill="#2a2a31"/>
<circle cx="520" cy="480" r="1.4" fill="#2a2a31"/>
<circle cx="560" cy="480" r="1.4" fill="#2a2a31"/>
<circle cx="600" cy="480" r="1.4" fill="#2a2a31"/>
<circle cx="640" cy="480" r="1.4" fill="#2a2a31"/>
<circle cx="680" cy="480" r="1.4" fill="#2a2a31"/>
<circle cx="720" cy="480" r="1.4" fill="#2a2a31"/>
<circle cx="760" cy="480" r="1.4" fill="#2a2a31"/>
<circle cx="800" cy="480" r="1.4" fill="#2a2a31"/>
<circle cx="840" cy="480" r="1.4" fill="#2a2a31"/>
<circle cx="880" cy="480" r="1.4" fill="#2a2a31"/>
<circle cx="920" cy="480" r="1.4" fill="#2a2a31"/>
<circle cx="960" cy="480" r="1.4" fill="#2a2a31"/>
<circle cx="1000" cy="480" r="1.4" fill="#2a2a31"/>
<circle cx="1040" cy="480" r="1.4" fill="#2a2a31"/>
<circle cx="1080" cy="480" r="1.4" fill="#2a2a31"/>
<circle cx="1120" cy="480" r="1.4" fill="#2a2a31"/>
<circle cx="1160" cy="480" r="1.4" fill="#2a2a31"/>
<circle cx="1200" cy="480" r="1.4" fill="#2a2a31"/>
<circle cx="1240" cy="480" r="1.4" fill="#2a2a31"/>
<circle cx="1280" cy="480" r="1.4" fill="#2a2a31"/>
<circle cx="1320" cy="480" r="1.4" fill="#2a2a31"/>
<circle cx="1360" cy="480" r="1.4" fill="#2a2a31"/>
<circle cx="1400" cy="480" r="1.4" fill="#2a2a31"/>
<circle cx="1440" cy="480" r="1.4" fill="#2a2a31"/>
<circle cx="1480" cy="480" r="1.4" fill="#2a2a31"/>
<circle cx="40" cy="520" r="1.4" fill="#2a2a31"/>
<circle cx="80" cy="520" r="1.4" fill="#2a2a31"/>
<circle cx="120" cy="520" r="1.4" fill="#2a2a31"/>
<circle cx="160" cy="520" r="1.4" fill="#2a2a31"/>
<circle cx="200" cy="520" r="1.4" fill="#2a2a31"/>
<circle cx="240" cy="520" r="1.4" fill="#2a2a31"/>
<circle cx="280" cy="520" r="1.4" fill="#2a2a31"/>
<circle cx="320" cy="520" r="1.4" fill="#2a2a31"/>
<circle cx="360" cy="520" r="1.4" fill="#2a2a31"/>
<circle cx="400" cy="520" r="1.4" fill="#2a2a31"/>
<circle cx="440" cy="520" r="1.4" fill="#2a2a31"/>
<circle cx="480" cy="520" r="1.4" fill="#2a2a31"/>
<circle cx="520" cy="520" r="1.4" fill="#2a2a31"/>
<circle cx="560" cy="520" r="1.4" fill="#2a2a31"/>
<circle cx="600" cy="520" r="1.4" fill="#2a2a31"/>
<circle cx="640" cy="520" r="1.4" fill="#2a2a31"/>
<circle cx="680" cy="520" r="1.4" fill="#2a2a31"/>
<circle cx="720" cy="520" r="1.4" fill="#2a2a31"/>
<circle cx="760" cy="520" r="1.4" fill="#2a2a31"/>
<circle cx="800" cy="520" r="1.4" fill="#2a2a31"/>
<circle cx="840" cy="520" r="1.4" fill="#2a2a31"/>
<circle cx="880" cy="520" r="1.4" fill="#2a2a31"/>
<circle cx="920" cy="520" r="1.4" fill="#2a2a31"/>
<circle cx="960" cy="520" r="1.4" fill="#2a2a31"/>
<circle cx="1000" cy="520" r="1.4" fill="#2a2a31"/>
<circle cx="1040" cy="520" r="1.4" fill="#2a2a31"/>
<circle cx="1080" cy="520" r="1.4" fill="#2a2a31"/>
<circle cx="1120" cy="520" r="1.4" fill="#2a2a31"/>
<circle cx="1160" cy="520" r="1.4" fill="#2a2a31"/>
<circle cx="1200" cy="520" r="1.4" fill="#2a2a31"/>
<circle cx="1240" cy="520" r="1.4" fill="#2a2a31"/>
<circle cx="1280" cy="520" r="1.4" fill="#2a2a31"/>
<circle cx="1320" cy="520" r="1.4" fill="#2a2a31"/>
<circle cx="1360" cy="520" r="1.4" fill="#2a2a31"/>
<circle cx="1400" cy="520" r="1.4" fill="#2a2a31"/>
<circle cx="1440" cy="520" r="1.4" fill="#2a2a31"/>
<circle cx="1480" cy="520" r="1.4" fill="#2a2a31"/>
<circle cx="40" cy="560" r="1.4" fill="#2a2a31"/>
<circle cx="80" cy="560" r="1.4" fill="#2a2a31"/>
<circle cx="120" cy="560" r="1.4" fill="#2a2a31"/>
<circle cx="160" cy="560" r="1.4" fill="#2a2a31"/>
<circle cx="200" cy="560" r="1.4" fill="#2a2a31"/>
<circle cx="240" cy="560" r="1.4" fill="#2a2a31"/>
<circle cx="280" cy="560" r="1.4" fill="#2a2a31"/>
<circle cx="320" cy="560" r="1.4" fill="#2a2a31"/>
<circle cx="360" cy="560" r="1.4" fill="#2a2a31"/>
<circle cx="400" cy="560" r="1.4" fill="#2a2a31"/>
<circle cx="440" cy="560" r="1.4" fill="#2a2a31"/>
<circle cx="480" cy="560" r="1.4" fill="#2a2a31"/>
<circle cx="520" cy="560" r="1.4" fill="#2a2a31"/>
<circle cx="560" cy="560" r="1.4" fill="#2a2a31"/>
<circle cx="600" cy="560" r="1.4" fill="#2a2a31"/>
<circle cx="640" cy="560" r="1.4" fill="#2a2a31"/>
<circle cx="680" cy="560" r="1.4" fill="#2a2a31"/>
<circle cx="720" cy="560" r="1.4" fill="#2a2a31"/>
<circle cx="760" cy="560" r="1.4" fill="#2a2a31"/>
<circle cx="800" cy="560" r="1.4" fill="#2a2a31"/>
<circle cx="840" cy="560" r="1.4" fill="#2a2a31"/>
<circle cx="880" cy="560" r="1.4" fill="#2a2a31"/>
<circle cx="920" cy="560" r="1.4" fill="#2a2a31"/>
<circle cx="960" cy="560" r="1.4" fill="#2a2a31"/>
<circle cx="1000" cy="560" r="1.4" fill="#2a2a31"/>
<circle cx="1040" cy="560" r="1.4" fill="#2a2a31"/>
<circle cx="1080" cy="560" r="1.4" fill="#2a2a31"/>
<circle cx="1120" cy="560" r="1.4" fill="#2a2a31"/>
<circle cx="1160" cy="560" r="1.4" fill="#2a2a31"/>
<circle cx="1200" cy="560" r="1.4" fill="#2a2a31"/>
<circle cx="1240" cy="560" r="1.4" fill="#2a2a31"/>
<circle cx="1280" cy="560" r="1.4" fill="#2a2a31"/>
<circle cx="1320" cy="560" r="1.4" fill="#2a2a31"/>
<circle cx="1360" cy="560" r="1.4" fill="#2a2a31"/>
<circle cx="1400" cy="560" r="1.4" fill="#2a2a31"/>
<circle cx="1440" cy="560" r="1.4" fill="#2a2a31"/>
<circle cx="1480" cy="560" r="1.4" fill="#2a2a31"/>
<circle cx="40" cy="600" r="1.4" fill="#2a2a31"/>
<circle cx="80" cy="600" r="1.4" fill="#2a2a31"/>
<circle cx="120" cy="600" r="1.4" fill="#2a2a31"/>
<circle cx="160" cy="600" r="1.4" fill="#2a2a31"/>
<circle cx="200" cy="600" r="1.4" fill="#2a2a31"/>
<circle cx="240" cy="600" r="1.4" fill="#2a2a31"/>
<circle cx="280" cy="600" r="1.4" fill="#2a2a31"/>
<circle cx="320" cy="600" r="1.4" fill="#2a2a31"/>
<circle cx="360" cy="600" r="1.4" fill="#2a2a31"/>
<circle cx="400" cy="600" r="1.4" fill="#2a2a31"/>
<circle cx="440" cy="600" r="1.4" fill="#2a2a31"/>
<circle cx="480" cy="600" r="1.4" fill="#2a2a31"/>
<circle cx="520" cy="600" r="1.4" fill="#2a2a31"/>
<circle cx="560" cy="600" r="1.4" fill="#2a2a31"/>
<circle cx="600" cy="600" r="1.4" fill="#2a2a31"/>
<circle cx="640" cy="600" r="1.4" fill="#2a2a31"/>
<circle cx="680" cy="600" r="1.4" fill="#2a2a31"/>
<circle cx="720" cy="600" r="1.4" fill="#2a2a31"/>
<circle cx="760" cy="600" r="1.4" fill="#2a2a31"/>
<circle cx="800" cy="600" r="1.4" fill="#2a2a31"/>
<circle cx="840" cy="600" r="1.4" fill="#2a2a31"/>
<circle cx="880" cy="600" r="1.4" fill="#2a2a31"/>
<circle cx="920" cy="600" r="1.4" fill="#2a2a31"/>
<circle cx="960" cy="600" r="1.4" fill="#2a2a31"/>
<circle cx="1000" cy="600" r="1.4" fill="#2a2a31"/>
<circle cx="1040" cy="600" r="1.4" fill="#2a2a31"/>
<circle cx="1080" cy="600" r="1.4" fill="#2a2a31"/>
<circle cx="1120" cy="600" r="1.4" fill="#2a2a31"/>
<circle cx="1160" cy="600" r="1.4" fill="#2a2a31"/>
<circle cx="1200" cy="600" r="1.4" fill="#2a2a31"/>
<circle cx="1240" cy="600" r="1.4" fill="#2a2a31"/>
<circle cx="1280" cy="600" r="1.4" fill="#2a2a31"/>
<circle cx="1320" cy="600" r="1.4" fill="#2a2a31"/>
<circle cx="1360" cy="600" r="1.4" fill="#2a2a31"/>
<circle cx="1400" cy="600" r="1.4" fill="#2a2a31"/>
<circle cx="1440" cy="600" r="1.4" fill="#2a2a31"/>
<circle cx="1480" cy="600" r="1.4" fill="#2a2a31"/>
<circle cx="40" cy="640" r="1.4" fill="#2a2a31"/>
<circle cx="80" cy="640" r="1.4" fill="#2a2a31"/>
<circle cx="120" cy="640" r="1.4" fill="#2a2a31"/>
<circle cx="160" cy="640" r="1.4" fill="#2a2a31"/>
<circle cx="200" cy="640" r="1.4" fill="#2a2a31"/>
<circle cx="240" cy="640" r="1.4" fill="#2a2a31"/>
<circle cx="280" cy="640" r="1.4" fill="#2a2a31"/>
<circle cx="320" cy="640" r="1.4" fill="#2a2a31"/>
<circle cx="360" cy="640" r="1.4" fill="#2a2a31"/>
<circle cx="400" cy="640" r="1.4" fill="#2a2a31"/>
<circle cx="440" cy="640" r="1.4" fill="#2a2a31"/>
<circle cx="480" cy="640" r="1.4" fill="#2a2a31"/>
<circle cx="520" cy="640" r="1.4" fill="#2a2a31"/>
<circle cx="560" cy="640" r="1.4" fill="#2a2a31"/>
<circle cx="600" cy="640" r="1.4" fill="#2a2a31"/>
<circle cx="640" cy="640" r="1.4" fill="#2a2a31"/>
<circle cx="680" cy="640" r="1.4" fill="#2a2a31"/>
<circle cx="720" cy="640" r="1.4" fill="#2a2a31"/>
<circle cx="760" cy="640" r="1.4" fill="#2a2a31"/>
<circle cx="800" cy="640" r="1.4" fill="#2a2a31"/>
<circle cx="840" cy="640" r="1.4" fill="#2a2a31"/>
<circle cx="880" cy="640" r="1.4" fill="#2a2a31"/>
<circle cx="920" cy="640" r="1.4" fill="#2a2a31"/>
<circle cx="960" cy="640" r="1.4" fill="#2a2a31"/>
<circle cx="1000" cy="640" r="1.4" fill="#2a2a31"/>
<circle cx="1040" cy="640" r="1.4" fill="#2a2a31"/>
<circle cx="1080" cy="640" r="1.4" fill="#2a2a31"/>
<circle cx="1120" cy="640" r="1.4" fill="#2a2a31"/>
<circle cx="1160" cy="640" r="1.4" fill="#2a2a31"/>
<circle cx="1200" cy="640" r="1.4" fill="#2a2a31"/>
<circle cx="1240" cy="640" r="1.4" fill="#2a2a31"/>
<circle cx="1280" cy="640" r="1.4" fill="#2a2a31"/>
<circle cx="1320" cy="640" r="1.4" fill="#2a2a31"/>
<circle cx="1360" cy="640" r="1.4" fill="#2a2a31"/>
<circle cx="1400" cy="640" r="1.4" fill="#2a2a31"/>
<circle cx="1440" cy="640" r="1.4" fill="#2a2a31"/>
<circle cx="1480" cy="640" r="1.4" fill="#2a2a31"/>
<circle cx="40" cy="680" r="1.4" fill="#2a2a31"/>
<circle cx="80" cy="680" r="1.4" fill="#2a2a31"/>
<circle cx="120" cy="680" r="1.4" fill="#2a2a31"/>
<circle cx="160" cy="680" r="1.4" fill="#2a2a31"/>
<circle cx="200" cy="680" r="1.4" fill="#2a2a31"/>
<circle cx="240" cy="680" r="1.4" fill="#2a2a31"/>
<circle cx="280" cy="680" r="1.4" fill="#2a2a31"/>
<circle cx="320" cy="680" r="1.4" fill="#2a2a31"/>
<circle cx="360" cy="680" r="1.4" fill="#2a2a31"/>
<circle cx="400" cy="680" r="1.4" fill="#2a2a31"/>
<circle cx="440" cy="680" r="1.4" fill="#2a2a31"/>
<circle cx="480" cy="680" r="1.4" fill="#2a2a31"/>
<circle cx="520" cy="680" r="1.4" fill="#2a2a31"/>
<circle cx="560" cy="680" r="1.4" fill="#2a2a31"/>
<circle cx="600" cy="680" r="1.4" fill="#2a2a31"/>
<circle cx="640" cy="680" r="1.4" fill="#2a2a31"/>
<circle cx="680" cy="680" r="1.4" fill="#2a2a31"/>
<circle cx="720" cy="680" r="1.4" fill="#2a2a31"/>
<circle cx="760" cy="680" r="1.4" fill="#2a2a31"/>
<circle cx="800" cy="680" r="1.4" fill="#2a2a31"/>
<circle cx="840" cy="680" r="1.4" fill="#2a2a31"/>
<circle cx="880" cy="680" r="1.4" fill="#2a2a31"/>
<circle cx="920" cy="680" r="1.4" fill="#2a2a31"/>
<circle cx="960" cy="680" r="1.4" fill="#2a2a31"/>
<circle cx="1000" cy="680" r="1.4" fill="#2a2a31"/>
<circle cx="1040" cy="680" r="1.4" fill="#2a2a31"/>
<circle cx="1080" cy="680" r="1.4" fill="#2a2a31"/>
<circle cx="1120" cy="680" r="1.4" fill="#2a2a31"/>
<circle cx="1160" cy="680" r="1.4" fill="#2a2a31"/>
<circle cx="1200" cy="680" r="1.4" fill="#2a2a31"/>
<circle cx="1240" cy="680" r="1.4" fill="#2a2a31"/>
<circle cx="1280" cy="680" r="1.4" fill="#2a2a31"/>
<circle cx="1320" cy="680" r="1.4" fill="#2a2a31"/>
<circle cx="1360" cy="680" r="1.4" fill="#2a2a31"/>
<circle cx="1400" cy="680" r="1.4" fill="#2a2a31"/>
<circle cx="1440" cy="680" r="1.4" fill="#2a2a31"/>
<circle cx="1480" cy="680" r="1.4" fill="#2a2a31"/>
<circle cx="40" cy="720" r="1.4" fill="#2a2a31"/>
<circle cx="80" cy="720" r="1.4" fill="#2a2a31"/>
<circle cx="120" cy="720" r="1.4" fill="#2a2a31"/>
<circle cx="160" cy="720" r="1.4" fill="#2a2a31"/>
<circle cx="200" cy="720" r="1.4" fill="#2a2a31"/>
<circle cx="240" cy="720" r="1.4" fill="#2a2a31"/>
<circle cx="280" cy="720" r="1.4" fill="#2a2a31"/>
<circle cx="320" cy="720" r="1.4" fill="#2a2a31"/>
<circle cx="360" cy="720" r="1.4" fill="#2a2a31"/>
<circle cx="400" cy="720" r="1.4" fill="#2a2a31"/>
<circle cx="440" cy="720" r="1.4" fill="#2a2a31"/>
<circle cx="480" cy="720" r="1.4" fill="#2a2a31"/>
<circle cx="520" cy="720" r="1.4" fill="#2a2a31"/>
<circle cx="560" cy="720" r="1.4" fill="#2a2a31"/>
<circle cx="600" cy="720" r="1.4" fill="#2a2a31"/>
<circle cx="640" cy="720" r="1.4" fill="#2a2a31"/>
<circle cx="680" cy="720" r="1.4" fill="#2a2a31"/>
<circle cx="720" cy="720" r="1.4" fill="#2a2a31"/>
<circle cx="760" cy="720" r="1.4" fill="#2a2a31"/>
<circle cx="800" cy="720" r="1.4" fill="#2a2a31"/>
<circle cx="840" cy="720" r="1.4" fill="#2a2a31"/>
<circle cx="880" cy="720" r="1.4" fill="#2a2a31"/>
<circle cx="920" cy="720" r="1.4" fill="#2a2a31"/>
<circle cx="960" cy="720" r="1.4" fill="#2a2a31"/>
<circle cx="1000" cy="720" r="1.4" fill="#2a2a31"/>
<circle cx="1040" cy="720" r="1.4" fill="#2a2a31"/>
<circle cx="1080" cy="720" r="1.4" fill="#2a2a31"/>
<circle cx="1120" cy="720" r="1.4" fill="#2a2a31"/>
<circle cx="1160" cy="720" r="1.4" fill="#2a2a31"/>
<circle cx="1200" cy="720" r="1.4" fill="#2a2a31"/>
<circle cx="1240" cy="720" r="1.4" fill="#2a2a31"/>
<circle cx="1280" cy="720" r="1.4" fill="#2a2a31"/>
<circle cx="1320" cy="720" r="1.4" fill="#2a2a31"/>
<circle cx="1360" cy="720" r="1.4" fill="#2a2a31"/>
<circle cx="1400" cy="720" r="1.4" fill="#2a2a31"/>
<circle cx="1440" cy="720" r="1.4" fill="#2a2a31"/>
<circle cx="1480" cy="720" r="1.4" fill="#2a2a31"/>
<circle cx="40" cy="760" r="1.4" fill="#2a2a31"/>
<circle cx="80" cy="760" r="1.4" fill="#2a2a31"/>
<circle cx="120" cy="760" r="1.4" fill="#2a2a31"/>
<circle cx="160" cy="760" r="1.4" fill="#2a2a31"/>
<circle cx="200" cy="760" r="1.4" fill="#2a2a31"/>
<circle cx="240" cy="760" r="1.4" fill="#2a2a31"/>
<circle cx="280" cy="760" r="1.4" fill="#2a2a31"/>
<circle cx="320" cy="760" r="1.4" fill="#2a2a31"/>
<circle cx="360" cy="760" r="1.4" fill="#2a2a31"/>
<circle cx="400" cy="760" r="1.4" fill="#2a2a31"/>
<circle cx="440" cy="760" r="1.4" fill="#2a2a31"/>
<circle cx="480" cy="760" r="1.4" fill="#2a2a31"/>
<circle cx="520" cy="760" r="1.4" fill="#2a2a31"/>
<circle cx="560" cy="760" r="1.4" fill="#2a2a31"/>
<circle cx="600" cy="760" r="1.4" fill="#2a2a31"/>
<circle cx="640" cy="760" r="1.4" fill="#2a2a31"/>
<circle cx="680" cy="760" r="1.4" fill="#2a2a31"/>
<circle cx="720" cy="760" r="1.4" fill="#2a2a31"/>
<circle cx="760" cy="760" r="1.4" fill="#2a2a31"/>
<circle cx="800" cy="760" r="1.4" fill="#2a2a31"/>
<circle cx="840" cy="760" r="1.4" fill="#2a2a31"/>
<circle cx="880" cy="760" r="1.4" fill="#2a2a31"/>
<circle cx="920" cy="760" r="1.4" fill="#2a2a31"/>
<circle cx="960" cy="760" r="1.4" fill="#2a2a31"/>
<circle cx="1000" cy="760" r="1.4" fill="#2a2a31"/>
<circle cx="1040" cy="760" r="1.4" fill="#2a2a31"/>
<circle cx="1080" cy="760" r="1.4" fill="#2a2a31"/>
<circle cx="1120" cy="760" r="1.4" fill="#2a2a31"/>
<circle cx="1160" cy="760" r="1.4" fill="#2a2a31"/>
<circle cx="1200" cy="760" r="1.4" fill="#2a2a31"/>
<circle cx="1240" cy="760" r="1.4" fill="#2a2a31"/>
<circle cx="1280" cy="760" r="1.4" fill="#2a2a31"/>
<circle cx="1320" cy="760" r="1.4" fill="#2a2a31"/>
<circle cx="1360" cy="760" r="1.4" fill="#2a2a31"/>
<circle cx="1400" cy="760" r="1.4" fill="#2a2a31"/>
<circle cx="1440" cy="760" r="1.4" fill="#2a2a31"/>
<circle cx="1480" cy="760" r="1.4" fill="#2a2a31"/>
<circle cx="40" cy="800" r="1.4" fill="#2a2a31"/>
<circle cx="80" cy="800" r="1.4" fill="#2a2a31"/>
<circle cx="120" cy="800" r="1.4" fill="#2a2a31"/>
<circle cx="160" cy="800" r="1.4" fill="#2a2a31"/>
<circle cx="200" cy="800" r="1.4" fill="#2a2a31"/>
<circle cx="240" cy="800" r="1.4" fill="#2a2a31"/>
<circle cx="280" cy="800" r="1.4" fill="#2a2a31"/>
<circle cx="320" cy="800" r="1.4" fill="#2a2a31"/>
<circle cx="360" cy="800" r="1.4" fill="#2a2a31"/>
<circle cx="400" cy="800" r="1.4" fill="#2a2a31"/>
<circle cx="440" cy="800" r="1.4" fill="#2a2a31"/>
<circle cx="480" cy="800" r="1.4" fill="#2a2a31"/>
<circle cx="520" cy="800" r="1.4" fill="#2a2a31"/>
<circle cx="560" cy="800" r="1.4" fill="#2a2a31"/>
<circle cx="600" cy="800" r="1.4" fill="#2a2a31"/>
<circle cx="640" cy="800" r="1.4" fill="#2a2a31"/>
<circle cx="680" cy="800" r="1.4" fill="#2a2a31"/>
<circle cx="720" cy="800" r="1.4" fill="#2a2a31"/>
<circle cx="760" cy="800" r="1.4" fill="#2a2a31"/>
<circle cx="800" cy="800" r="1.4" fill="#2a2a31"/>
<circle cx="840" cy="800" r="1.4" fill="#2a2a31"/>
<circle cx="880" cy="800" r="1.4" fill="#2a2a31"/>
<circle cx="920" cy="800" r="1.4" fill="#2a2a31"/>
<circle cx="960" cy="800" r="1.4" fill="#2a2a31"/>
<circle cx="1000" cy="800" r="1.4" fill="#2a2a31"/>
<circle cx="1040" cy="800" r="1.4" fill="#2a2a31"/>
<circle cx="1080" cy="800" r="1.4" fill="#2a2a31"/>
<circle cx="1120" cy="800" r="1.4" fill="#2a2a31"/>
<circle cx="1160" cy="800" r="1.4" fill="#2a2a31"/>
<circle cx="1200" cy="800" r="1.4" fill="#2a2a31"/>
<circle cx="1240" cy="800" r="1.4" fill="#2a2a31"/>
<circle cx="1280" cy="800" r="1.4" fill="#2a2a31"/>
<circle cx="1320" cy="800" r="1.4" fill="#2a2a31"/>
<circle cx="1360" cy="800" r="1.4" fill="#2a2a31"/>
<circle cx="1400" cy="800" r="1.4" fill="#2a2a31"/>
<circle cx="1440" cy="800" r="1.4" fill="#2a2a31"/>
<circle cx="1480" cy="800" r="1.4" fill="#2a2a31"/>
<circle cx="40" cy="840" r="1.4" fill="#2a2a31"/>
<circle cx="80" cy="840" r="1.4" fill="#2a2a31"/>
<circle cx="120" cy="840" r="1.4" fill="#2a2a31"/>
<circle cx="160" cy="840" r="1.4" fill="#2a2a31"/>
<circle cx="200" cy="840" r="1.4" fill="#2a2a31"/>
<circle cx="240" cy="840" r="1.4" fill="#2a2a31"/>
<circle cx="280" cy="840" r="1.4" fill="#2a2a31"/>
<circle cx="320" cy="840" r="1.4" fill="#2a2a31"/>
<circle cx="360" cy="840" r="1.4" fill="#2a2a31"/>
<circle cx="400" cy="840" r="1.4" fill="#2a2a31"/>
<circle cx="440" cy="840" r="1.4" fill="#2a2a31"/>
<circle cx="480" cy="840" r="1.4" fill="#2a2a31"/>
<circle cx="520" cy="840" r="1.4" fill="#2a2a31"/>
<circle cx="560" cy="840" r="1.4" fill="#2a2a31"/>
<circle cx="600" cy="840" r="1.4" fill="#2a2a31"/>
<circle cx="640" cy="840" r="1.4" fill="#2a2a31"/>
<circle cx="680" cy="840" r="1.4" fill="#2a2a31"/>
<circle cx="720" cy="840" r="1.4" fill="#2a2a31"/>
<circle cx="760" cy="840" r="1.4" fill="#2a2a31"/>
<circle cx="800" cy="840" r="1.4" fill="#2a2a31"/>
<circle cx="840" cy="840" r="1.4" fill="#2a2a31"/>
<circle cx="880" cy="840" r="1.4" fill="#2a2a31"/>
<circle cx="920" cy="840" r="1.4" fill="#2a2a31"/>
<circle cx="960" cy="840" r="1.4" fill="#2a2a31"/>
<circle cx="1000" cy="840" r="1.4" fill="#2a2a31"/>
<circle cx="1040" cy="840" r="1.4" fill="#2a2a31"/>
<circle cx="1080" cy="840" r="1.4" fill="#2a2a31"/>
<circle cx="1120" cy="840" r="1.4" fill="#2a2a31"/>
<circle cx="1160" cy="840" r="1.4" fill="#2a2a31"/>
<circle cx="1200" cy="840" r="1.4" fill="#2a2a31"/>
<circle cx="1240" cy="840" r="1.4" fill="#2a2a31"/>
<circle cx="1280" cy="840" r="1.4" fill="#2a2a31"/>
<circle cx="1320" cy="840" r="1.4" fill="#2a2a31"/>
<circle cx="1360" cy="840" r="1.4" fill="#2a2a31"/>
<circle cx="1400" cy="840" r="1.4" fill="#2a2a31"/>
<circle cx="1440" cy="840" r="1.4" fill="#2a2a31"/>
<circle cx="1480" cy="840" r="1.4" fill="#2a2a31"/>
<circle cx="40" cy="880" r="1.4" fill="#2a2a31"/>
<circle cx="80" cy="880" r="1.4" fill="#2a2a31"/>
<circle cx="120" cy="880" r="1.4" fill="#2a2a31"/>
<circle cx="160" cy="880" r="1.4" fill="#2a2a31"/>
<circle cx="200" cy="880" r="1.4" fill="#2a2a31"/>
<circle cx="240" cy="880" r="1.4" fill="#2a2a31"/>
<circle cx="280" cy="880" r="1.4" fill="#2a2a31"/>
<circle cx="320" cy="880" r="1.4" fill="#2a2a31"/>
<circle cx="360" cy="880" r="1.4" fill="#2a2a31"/>
<circle cx="400" cy="880" r="1.4" fill="#2a2a31"/>
<circle cx="440" cy="880" r="1.4" fill="#2a2a31"/>
<circle cx="480" cy="880" r="1.4" fill="#2a2a31"/>
<circle cx="520" cy="880" r="1.4" fill="#2a2a31"/>
<circle cx="560" cy="880" r="1.4" fill="#2a2a31"/>
<circle cx="600" cy="880" r="1.4" fill="#2a2a31"/>
<circle cx="640" cy="880" r="1.4" fill="#2a2a31"/>
<circle cx="680" cy="880" r="1.4" fill="#2a2a31"/>
<circle cx="720" cy="880" r="1.4" fill="#2a2a31"/>
<circle cx="760" cy="880" r="1.4" fill="#2a2a31"/>
<circle cx="800" cy="880" r="1.4" fill="#2a2a31"/>
<circle cx="840" cy="880" r="1.4" fill="#2a2a31"/>
<circle cx="880" cy="880" r="1.4" fill="#2a2a31"/>
<circle cx="920" cy="880" r="1.4" fill="#2a2a31"/>
<circle cx="960" cy="880" r="1.4" fill="#2a2a31"/>
<circle cx="1000" cy="880" r="1.4" fill="#2a2a31"/>
<circle cx="1040" cy="880" r="1.4" fill="#2a2a31"/>
<circle cx="1080" cy="880" r="1.4" fill="#2a2a31"/>
<circle cx="1120" cy="880" r="1.4" fill="#2a2a31"/>
<circle cx="1160" cy="880" r="1.4" fill="#2a2a31"/>
<circle cx="1200" cy="880" r="1.4" fill="#2a2a31"/>
<circle cx="1240" cy="880" r="1.4" fill="#2a2a31"/>
<circle cx="1280" cy="880" r="1.4" fill="#2a2a31"/>
<circle cx="1320" cy="880" r="1.4" fill="#2a2a31"/>
<circle cx="1360" cy="880" r="1.4" fill="#2a2a31"/>
<circle cx="1400" cy="880" r="1.4" fill="#2a2a31"/>
<circle cx="1440" cy="880" r="1.4" fill="#2a2a31"/>
<circle cx="1480" cy="880" r="1.4" fill="#2a2a31"/>
<circle cx="40" cy="920" r="1.4" fill="#2a2a31"/>
<circle cx="80" cy="920" r="1.4" fill="#2a2a31"/>
<circle cx="120" cy="920" r="1.4" fill="#2a2a31"/>
<circle cx="160" cy="920" r="1.4" fill="#2a2a31"/>
<circle cx="200" cy="920" r="1.4" fill="#2a2a31"/>
<circle cx="240" cy="920" r="1.4" fill="#2a2a31"/>
<circle cx="280" cy="920" r="1.4" fill="#2a2a31"/>
<circle cx="320" cy="920" r="1.4" fill="#2a2a31"/>
<circle cx="360" cy="920" r="1.4" fill="#2a2a31"/>
<circle cx="400" cy="920" r="1.4" fill="#2a2a31"/>
<circle cx="440" cy="920" r="1.4" fill="#2a2a31"/>
<circle cx="480" cy="920" r="1.4" fill="#2a2a31"/>
<circle cx="520" cy="920" r="1.4" fill="#2a2a31"/>
<circle cx="560" cy="920" r="1.4" fill="#2a2a31"/>
<circle cx="600" cy="920" r="1.4" fill="#2a2a31"/>
<circle cx="640" cy="920" r="1.4" fill="#2a2a31"/>
<circle cx="680" cy="920" r="1.4" fill="#2a2a31"/>
<circle cx="720" cy="920" r="1.4" fill="#2a2a31"/>
<circle cx="760" cy="920" r="1.4" fill="#2a2a31"/>
<circle cx="800" cy="920" r="1.4" fill="#2a2a31"/>
<circle cx="840" cy="920" r="1.4" fill="#2a2a31"/>
<circle cx="880" cy="920" r="1.4" fill="#2a2a31"/>
<circle cx="920" cy="920" r="1.4" fill="#2a2a31"/>
<circle cx="960" cy="920" r="1.4" fill="#2a2a31"/>
<circle cx="1000" cy="920" r="1.4" fill="#2a2a31"/>
<circle cx="1040" cy="920" r="1.4" fill="#2a2a31"/>
<circle cx="1080" cy="920" r="1.4" fill="#2a2a31"/>
<circle cx="1120" cy="920" r="1.4" fill="#2a2a31"/>
<circle cx="1160" cy="920" r="1.4" fill="#2a2a31"/>
<circle cx="1200" cy="920" r="1.4" fill="#2a2a31"/>
<circle cx="1240" cy="920" r="1.4" fill="#2a2a31"/>
<circle cx="1280" cy="920" r="1.4" fill="#2a2a31"/>
<circle cx="1320" cy="920" r="1.4" fill="#2a2a31"/>
<circle cx="1360" cy="920" r="1.4" fill="#2a2a31"/>
<circle cx="1400" cy="920" r="1.4" fill="#2a2a31"/>
<circle cx="1440" cy="920" r="1.4" fill="#2a2a31"/>
<circle cx="1480" cy="920" r="1.4" fill="#2a2a31"/>
<text id="t0" data-role="title" data-target="false" x="58.00" y="58.96" font-family="Georgia, 'Times New Roman', serif" font-size="30" fill="#f5f5f7" text-anchor="start" textLength="489.00" lengthAdjust="spacingAndGlyphs">Triage Protocol - state machine 0094</text>
<circle cx="168.00" cy="443.00" r="89.50" fill="#33333d" stroke="#63636e" stroke-width="1.6"/>
<text id="t1" data-role="label" data-target="true" x="168.00" y="450.00" font-family="Georgia, 'Times New Roman', serif" font-size="19" fill="#f5f5f7" text-anchor="middle" textLength="135.00" lengthAdjust="spacingAndGlyphs">Index Symptom</text>
<circle cx="400.80" cy="583.00" r="80.00" fill="#2c3f38" stroke="#63636e" stroke-width="1.6"/>
<text id="t2" data-role="label" data-target="true" x="400.80" y="590.00" font-family="Georgia, 'Times New Roman', serif" font-size="19" fill="#f5f5f7" text-anchor="middle" textLength="116.00" lengthAdjust="spacingAndGlyphs">Backfill Chart</text>
<circle cx="633.60" cy="443.00" r="52.00" fill="#40372a" stroke="#63636e" stroke-width="1.6"/>
<text id="t3" data-role="label" data-target="true" x="633.60" y="450.00" font-family="Georgia, 'Times New Roman', serif" font-size="19" fill="#f5f5f7" text-anchor="middle" textLength="41.00" lengthAdjust="spacingAndGlyphs">Hold</text>
<circle cx="866.40" cy="583.00" r="52.00" fill="#3a2f40" stroke="#63636e" stroke-width="1.6"/>
<text id="t4" data-role="label" data-target="true" x="866.40" y="590.00" font-family="Georgia, 'Times New Roman', serif" font-size="19" fill="#f5f5f7" text-anchor="middle" textLength="46.00" lengthAdjust="spacingAndGlyphs">Retry</text>
<circle cx="1099.20" cy="443.00" r="80.00" fill="#263a44" stroke="#63636e" stroke-width="1.6"/>
<text id="t5" data-role="label" data-target="true" x="1099.20" y="450.00" font-family="Georgia, 'Times New Roman', serif" font-size="19" fill="#f5f5f7" text-anchor="middle" textLength="116.00" lengthAdjust="spacingAndGlyphs">Sample Chart</text>
<circle cx="1332.00" cy="583.00" r="76.00" fill="#452c30" stroke="#63636e" stroke-width="1.6"/>
<text id="t6" data-role="label" data-target="true" x="1332.00" y="590.00" font-family="Georgia, 'Times New Roman', serif" font-size="19" fill="#f5f5f7" text-anchor="middle" textLength="108.00" lengthAdjust="spacingAndGlyphs">Merge Vitals</text>
<line x1="214.00" y1="443.00" x2="354.80" y2="583.00" stroke="#9a9aa4" stroke-width="1.60" marker-end="url(#ah)"/>
<text id="t7" data-role="transition" data-target="true" x="284.40" y="505.00" font-family="Georgia, 'Times New Roman', serif" font-size="16.666666666666668" fill="#9a9aa4" text-anchor="middle" textLength="57.00" lengthAdjust="spacingAndGlyphs">expired</text>
<line x1="446.80" y1="583.00" x2="587.60" y2="443.00" stroke="#9a9aa4" stroke-width="1.60" marker-end="url(#ah)"/>
<text id="t8" data-role="transition" data-target="true" x="517.20" y="505.00" font-family="Georgia, 'Times New Roman', serif" font-size="16.666666666666668" fill="#9a9aa4" text-anchor="middle" textLength="51.00" lengthAdjust="spacingAndGlyphs">partial</text>
<line x1="679.60" y1="443.00" x2="820.40" y2="583.00" stroke="#9a9aa4" stroke-width="1.60" marker-end="url(#ah)"/>
<text id="t9" data-role="transition" data-target="true" x="750.00" y="505.00" font-family="Georgia, 'Times New Roman', serif" font-size="16.666666666666668" fill="#9a9aa4" text-anchor="middle" textLength="57.00" lengthAdjust="spacingAndGlyphs">expired</text>
<line x1="912.40" y1="583.00" x2="1053.20" y2="443.00" stroke="#9a9aa4" stroke-width="1.60" marker-end="url(#ah)"/>
<text id="t10" data-role="transition" data-target="true" x="982.80" y="505.00" font-family="Georgia, 'Times New Roman', serif" font-size="16.666666666666668" fill="#9a9aa4" text-anchor="middle" textLength="25.00" lengthAdjust="spacingAndGlyphs">fail</text>
<line x1="1145.20" y1="443.00" x2="1286.00" y2="583.00" stroke="#9a9aa4" stroke-width="1.60" marker-end="url(#ah)"/>
<text id="t11" data-role="transition" data-target="true" x="1215.60" y="505.00" font-family="Georgia, 'Times New Roman', serif" font-size="16.666666666666668" fill="#9a9aa4" text-anchor="middle" textLength="30.00" lengthAdjust="spacingAndGlyphs">dup</text>
<text id="t12" data-role="footnote" data-target="false" x="58.00" y="932.00" font-family="Georgia, 'Times New Roman', serif" font-size="14" fill="#9a9aa4" text-anchor="start" textLength="202.00" lengthAdjust="spacingAndGlyphs">source: internal | n=1508 | rev 17</text>
<text id="t13" data-role="badge" data-target="false" x="1442.00" y="46.96" font-family="Georgia, 'Times New Roman', serif" font-size="15" fill="#9a9aa4" text-anchor="end" textLength="79.00" lengthAdjust="spacingAndGlyphs">INTERNAL</text>
<text id="t14" data-role="footnote" data-target="false" x="1442.00" y="933.00" font-family="Georgia, 'Times New Roman', serif" font-size="14" fill="#9a9aa4" text-anchor="end" textLength="95.00" lengthAdjust="spacingAndGlyphs">generated 6/10</text>
</svg>